<svg width="42" height="34" viewBox="0 0 42 34" fill="none" xmlns="http://www.w3.org/2000/svg">
<path d="M11.3634 8.04363C11.9867 7.23065 12.3661 6.22797 12.3661 5.144C12.3661 2.54246 10.2524 0.401611 7.62372 0.401611C4.99508 0.401611 2.88133 2.51536 2.88133 5.144C2.88133 6.22797 3.26072 7.25775 3.884 8.04363C1.95995 9.07341 0.713379 11.0788 0.713379 13.328V22.9754C0.713379 23.409 1.06567 23.7613 1.49926 23.7613H3.36912V31.5659C3.36912 32.4331 4.0737 33.1647 4.96798 33.1647H7.62372H10.2795C11.1466 33.1647 11.8783 32.4602 11.8783 31.5659V23.7613H13.7211C14.1547 23.7613 14.507 23.409 14.507 22.9754V13.328C14.5341 11.1059 13.2604 9.07341 11.3634 8.04363ZM7.62372 2.00048C9.35808 2.00048 10.7672 3.40964 10.7672 5.144C10.7672 6.87836 9.35808 8.28753 7.62372 8.28753C5.88936 8.28753 4.48019 6.87836 4.48019 5.144C4.48019 3.40964 5.88936 2.00048 7.62372 2.00048ZM12.9352 22.1895H11.8783V15.8753C11.8783 15.4418 11.526 15.0895 11.0924 15.0895C10.6588 15.0895 10.3066 15.4418 10.3066 15.8753V31.5659H8.4367V25.5769C8.4367 25.1433 8.08441 24.791 7.65082 24.791C7.21723 24.791 6.86493 25.1433 6.86493 25.5769V31.5659H4.96798V15.8753C4.96798 15.4418 4.61569 15.0895 4.1821 15.0895C3.74851 15.0895 3.39621 15.4418 3.39621 15.8753V22.1895H2.33934V13.328C2.33934 11.4853 3.50461 9.83219 5.23897 9.2089C5.94356 9.64249 6.78364 9.88639 7.67791 9.88639C8.57219 9.88639 9.41227 9.64249 10.1169 9.2089C11.8241 9.85929 12.9894 11.4853 12.9894 13.328V22.1895H12.9352Z" fill="#222322"/>
<path d="M41.1995 6.3906C41.1995 4.98143 40.0342 3.81616 38.625 3.81616H16.6745C15.2654 3.81616 14.1001 4.98143 14.1001 6.3906C14.1001 7.71847 15.1299 8.80244 16.4035 8.93794V24.2491C16.4035 24.6827 16.7558 25.035 17.1894 25.035H26.8368V27.1216L21.9589 31.9995C21.6608 32.2976 21.6608 32.8125 21.9589 33.1106C22.257 33.4087 22.7719 33.4087 23.07 33.1106L26.8368 29.3438V32.8125C26.8368 33.2461 27.1891 33.5984 27.6227 33.5984C28.0563 33.5984 28.4086 33.2461 28.4086 32.8125V29.4793L32.067 33.1377C32.3651 33.4358 32.88 33.4358 33.1781 33.1377C33.4761 32.8396 33.4761 32.3247 33.1781 32.0266L28.4086 27.2571V25.035H38.0559C38.4895 25.035 38.8418 24.6827 38.8418 24.2491V8.93794C40.1968 8.80244 41.1995 7.71847 41.1995 6.3906ZM37.2972 23.4632H18.0024V8.96504H37.2972V23.4632ZM38.625 7.39328H16.6745C16.1326 7.39328 15.6719 6.95969 15.6719 6.3906C15.6719 5.84861 16.1055 5.38793 16.6745 5.38793H38.625C39.167 5.38793 39.6277 5.82152 39.6277 6.3906C39.6277 6.93259 39.167 7.39328 38.625 7.39328Z" fill="#222322"/>
<path d="M22.1215 20.0485L26.078 16.092L28.3544 18.3684C28.6525 18.6664 29.1673 18.6664 29.4654 18.3684L32.9613 14.8725V15.9294C32.9613 16.363 33.3135 16.7153 33.7471 16.7153C34.1807 16.7153 34.533 16.363 34.533 15.9294V12.9485C34.533 12.5149 34.1807 12.1626 33.7471 12.1626H30.7662C30.3326 12.1626 29.9803 12.5149 29.9803 12.9485C29.9803 13.3821 30.3326 13.7344 30.7662 13.7344H31.8231L28.8963 16.6611L26.62 14.3847C26.3219 14.0866 25.807 14.0866 25.5089 14.3847L20.9833 18.9103C20.6852 19.2084 20.6852 19.7233 20.9833 20.0214C21.3085 20.3466 21.7963 20.3466 22.1215 20.0485Z" fill="#222322"/>
</svg>
